<svg width="243" height="47" viewBox="0 0 243 47" fill="none" xmlns="http://www.w3.org/2000/svg">
<path d="M16.6193 28.7497L26.0782 19.2908L26.1417 30.8845C26.1379 32.1636 26.3881 33.4307 26.8776 34.6124C27.3671 35.7941 28.0863 36.8668 28.9935 37.7685C30.8347 39.6097 33.2777 40.624 35.8781 40.624C37.7257 40.6285 39.5361 40.1041 41.0954 39.113C41.5148 40.849 42.4073 42.4348 43.6739 43.694C47.4692 47.4904 53.6461 47.4909 57.4435 43.6935L68.9138 32.2232C72.7107 28.4263 72.7123 22.2494 68.9149 18.452C65.1185 14.6556 58.9395 14.654 55.1436 18.4499L39.2896 34.2997C38.3764 35.213 37.1657 35.7155 35.8812 35.7149C34.5888 35.7149 33.3756 35.2099 32.4639 34.2981C31.5522 33.3864 31.0487 32.1748 31.0508 30.871L30.9591 14.4088L30.6649 8.08604C30.2446 6.35236 29.3527 4.76881 28.088 3.51073C24.2927 -0.284588 18.1131 -0.28667 14.3168 3.50969L2.84805 14.9784C-0.949351 18.7758 -0.948828 24.9569 2.84649 28.7523C6.64389 32.5497 12.8219 32.5471 16.6193 28.7497ZM45.7301 36.7954L45.7197 34.8126L58.613 21.9213C59.5197 21.0169 60.7481 20.5091 62.0288 20.5093C63.3095 20.5096 64.5377 21.018 65.444 21.9229C67.3252 23.8041 67.3247 26.8694 65.4429 28.7512L53.9716 40.2215C52.0898 42.1033 49.024 42.1033 47.1432 40.2226C46.692 39.7737 46.3347 39.2395 46.0921 38.6511C45.8495 38.0626 45.7264 37.4318 45.7301 36.7954ZM6.3195 18.4499L17.7882 6.98113C18.6943 6.07699 19.922 5.56917 21.202 5.56907C22.4821 5.56897 23.7098 6.07661 24.6161 6.98062C25.5283 7.89287 26.0292 9.10608 26.0292 10.4078L26.0391 12.388L13.1484 25.2798C11.2635 27.1647 8.20127 27.1652 6.31793 25.2819C5.41369 24.3749 4.90606 23.1463 4.90635 21.8655C4.90665 20.5848 5.41484 19.3565 6.3195 18.4499Z" fill="#090C1E"/>
<path d="M45.6816 27.9087L45.6186 16.3176C45.6171 10.9498 41.2453 6.58228 35.8812 6.5802C34.0339 6.57195 32.2232 7.09399 30.6649 8.08604L30.9591 14.4088L32.4701 12.8988C32.9159 12.4494 33.4467 12.0934 34.0315 11.8515C34.6164 11.6096 35.2436 11.4866 35.8765 11.4898C38.5404 11.4908 40.7064 13.6569 40.7095 16.3312L40.7996 32.7907L45.6816 27.9087Z" fill="#FB2576"/>
<path d="M106.22 7.49695C108.993 7.49695 111.468 8.07296 113.644 9.22497C115.862 10.377 117.59 12.0837 118.828 14.3451C120.065 16.6064 120.684 19.3371 120.684 22.5372V43.3375H113.452V23.6252C113.452 20.4678 112.662 18.0571 111.084 16.3931C109.505 14.6864 107.35 13.833 104.619 13.833C101.889 13.833 99.7128 14.6864 98.0914 16.3931C96.5127 18.0571 95.7234 20.4678 95.7234 23.6252V43.3375H88.4272V8.07296H95.7234V12.105C96.918 10.6543 98.4327 9.52365 100.267 8.71297C102.145 7.90229 104.129 7.49695 106.22 7.49695Z" fill="#090C1E"/>
<path d="M162.311 24.8412C162.311 26.1639 162.226 27.3586 162.055 28.4253H135.11C135.324 31.2413 136.369 33.5027 138.247 35.2094C140.124 36.9161 142.428 37.7694 145.159 37.7694C149.084 37.7694 151.857 36.1267 153.479 32.8413H161.351C160.284 36.084 158.343 38.7508 155.527 40.8415C152.753 42.8895 149.297 43.9135 145.159 43.9135C141.788 43.9135 138.759 43.1668 136.07 41.6735C133.425 40.1374 131.334 38.0041 129.798 35.2734C128.305 32.5 127.558 29.2999 127.558 25.6732C127.558 22.0465 128.284 18.8678 129.734 16.1371C131.228 13.3637 133.297 11.2303 135.942 9.73698C138.631 8.24363 141.703 7.49695 145.159 7.49695C148.487 7.49695 151.452 8.22229 154.055 9.67298C156.657 11.1237 158.684 13.1717 160.135 15.8171C161.586 18.4198 162.311 21.4278 162.311 24.8412ZM154.695 22.5372C154.652 19.8491 153.692 17.6944 151.815 16.0731C149.937 14.4517 147.612 13.641 144.839 13.641C142.321 13.641 140.167 14.4517 138.375 16.0731C136.582 17.6518 135.516 19.8065 135.174 22.5372H154.695Z" fill="#090C1E"/>
<path d="M184.787 43.9135C181.459 43.9135 178.451 43.1668 175.763 41.6735C173.075 40.1374 170.963 38.0041 169.427 35.2734C167.891 32.5 167.123 29.2999 167.123 25.6732C167.123 22.0892 167.912 18.9105 169.491 16.1371C171.07 13.3637 173.224 11.2303 175.955 9.73698C178.686 8.24363 181.737 7.49695 185.107 7.49695C188.478 7.49695 191.529 8.24363 194.259 9.73698C196.99 11.2303 199.145 13.3637 200.723 16.1371C202.302 18.9105 203.092 22.0892 203.092 25.6732C203.092 29.2573 202.281 32.436 200.659 35.2094C199.038 37.9827 196.819 40.1374 194.003 41.6735C191.23 43.1668 188.158 43.9135 184.787 43.9135ZM184.787 37.5774C186.665 37.5774 188.414 37.1294 190.035 36.2334C191.699 35.3374 193.043 33.9934 194.067 32.2013C195.091 30.4093 195.603 28.2333 195.603 25.6732C195.603 23.1132 195.113 20.9585 194.131 19.2091C193.15 17.4171 191.849 16.0731 190.227 15.1771C188.606 14.2811 186.857 13.833 184.979 13.833C183.102 13.833 181.353 14.2811 179.731 15.1771C178.152 16.0731 176.894 17.4171 175.955 19.2091C175.016 20.9585 174.547 23.1132 174.547 25.6732C174.547 29.4706 175.507 32.4147 177.427 34.5054C179.39 36.5534 181.843 37.5774 184.787 37.5774Z" fill="#090C1E"/>
<path d="M228.096 7.49695C230.87 7.49695 233.344 8.07296 235.521 9.22497C237.739 10.377 239.467 12.0837 240.705 14.3451C241.942 16.6064 242.561 19.3371 242.561 22.5372V43.3375H235.329V23.6252C235.329 20.4678 234.539 18.0571 232.96 16.3931C231.382 14.6864 229.227 13.833 226.496 13.833C223.766 13.833 221.59 14.6864 219.968 16.3931C218.39 18.0571 217.6 20.4678 217.6 23.6252V43.3375H210.304V8.07296H217.6V12.105C218.795 10.6543 220.31 9.52365 222.144 8.71297C224.022 7.90229 226.006 7.49695 228.096 7.49695Z" fill="#090C1E"/>
</svg>
